Coordinates
version=1
nRows=5
nColumns=40
inDegrees=yes

Units are S.I. units (second, meters, Newtons, ...)
Angles are in degrees.

endheader
time	pelvis_tilt	pelvis_list	pelvis_rotation	pelvis_tx	pelvis_ty	pelvis_tz	hip_flexion_r	hip_adduction_r	hip_rotation_r	knee_angle_r	knee_angle_r_beta	ankle_angle_r	subtalar_angle_r	mtp_angle_r	hip_flexion_l	hip_adduction_l	hip_rotation_l	knee_angle_l	knee_angle_l_beta	ankle_angle_l	subtalar_angle_l	mtp_angle_l	lumbar_extension	lumbar_bending	lumbar_rotation	arm_flex_r	arm_add_r	arm_rot_r	elbow_flex_r	pro_sup_r	wrist_flex_r	wrist_dev_r	arm_flex_l	arm_add_l	arm_rot_l	elbow_flex_l	pro_sup_l	wrist_flex_l	wrist_dev_l
      5.08300000	     -5.32651279	     -6.05338668	      1.94872582	      0.90663529	      0.92361409	      0.51682577	      0.06526748	      6.04564310	    -16.70357431	      9.90558234	      9.90558234	     15.89507724	     10.65824944	     -2.40402658	     32.53508799	     -9.20633823	     -5.03889142	     19.67601654	     19.67601654	      5.07216603	     -7.32534259	     10.84759090	     -8.75318404	      8.22354832	      4.93237476	     34.42568855	    -14.59669177	     -4.60521522	     96.18488305	     44.43749471	      0.00000000	      0.00000000	     -9.85548961	     -6.93424737	     -1.42384363	     30.26614136	     45.10449330	      0.00000000	      0.00000000
      5.09600000	     -5.30286895	     -6.06094046	      1.70877052	      0.90795034	      0.92262895	      0.51573201	     -0.48081195	      5.91694341	    -16.42816912	     10.17323539	     10.17323539	     16.35582404	     10.72591562	     -2.50249498	     31.82261373	     -9.14506160	     -5.05842338	     20.35361977	     20.35361977	      4.75079090	     -7.92959327	     10.64072451	     -8.48357464	      8.17943202	      4.96087814	     33.64216026	    -14.51186176	     -4.43021056	     95.93366019	     44.43947418	      0.00000000	      0.00000000	     -9.79247256	     -7.02963683	     -1.42631724	     30.41297270	     45.10798747	      0.00000000	      0.00000000
      5.10900000	     -5.30611694	     -6.02407858	      1.50312356	      0.90923503	      0.92167405	      0.51444041	     -0.91398662	      5.70215876	    -16.18510432	     10.60344740	     10.60344740	     16.84526465	     10.69545313	     -2.55505858	     31.16995155	     -8.97096208	     -4.83251637	     20.98273358	     20.98273358	      4.35841485	     -8.83559830	     10.20027167	     -8.18194974	      8.10148686	      5.06922426	     32.71163769	    -14.65877646	     -4.28079687	     95.45598029	     44.45139769	      0.00000000	      0.00000000	     -9.62504110	     -7.18528170	     -1.44954685	     30.73888876	     45.11795560	      0.00000000	      0.00000000
      5.12200000	     -5.41374251	     -5.93312610	      1.28218033	      0.91028370	      0.92082672	      0.51298719	     -1.04735216	      5.35536091	    -15.90977523	     11.36011383	     11.36011383	     17.34577791	     10.56474003	     -2.46119882	     30.56431710	     -8.63152446	     -4.22527774	     21.30480983	     21.30480983	      3.55227995	    -10.36524903	      9.20648024	     -7.79015418	      7.93031723	      5.36956160	     31.65968338	    -15.16313835	     -4.24588514	     94.53873991	     44.48821295	      0.00000000	      0.00000000	     -9.38840107	     -7.35840829	     -1.48999490	     31.41332739	     45.13776560	      0.00000000	      0.00000000
      5.13500000	     -5.35075196	     -5.85125803	      1.12205254	      0.91150540	      0.92050085	      0.51145889	     -1.56447073	      5.07946225	    -15.67710716	     11.72015416	     11.72015416	     17.62020982	     10.54922985	     -2.50906502	     29.91274410	     -8.43662711	     -4.05599152	     21.81217836	     21.81217836	      3.53788372	    -10.89653718	      8.82977333	     -7.67455162	      7.77689666	      5.15982744	     30.48571011	    -15.01962599	     -4.10774849	     94.01609939	     44.49926550	      0.00000000	      0.00000000	     -9.11827741	     -7.52557428	     -1.51890760	     31.62188296	     45.14918491	      0.00000000	      0.00000000
